<?xml version="1.0" encoding="UTF-8"?>
<svg id="Layer_2" xmlns="http://www.w3.org/2000/svg" viewBox="0 0 319.81 31.71">
  <defs>
    <style>
      .cls-1 {
        fill: #f9f9f9;
      }

      .cls-2 {
        fill: #77f2a1;
      }
    </style>
  </defs>
  <g id="Layer_1-2" data-name="Layer_1">
    <g>
      <path class="cls-1" d="M36.46,7.87l-11.42,23.45h-6.68l-1.41-16.3-7.47,16.3H2.81L0,7.87h6.19l1.05,17.86L15.2,7.87h6.5l1.32,17.82,7.51-17.82h5.93Z"/>
      <path class="cls-1" d="M57.86,9.97c1.82,1.65,2.72,3.87,2.72,6.67,0,.9-.07,1.71-.22,2.41-.18.85-.37,1.58-.57,2.2h-17.79c-.03.2-.04.48-.04.85,0,1.47.45,2.62,1.34,3.45.89.83,2.07,1.25,3.54,1.25,1.23,0,2.29-.26,3.18-.78.89-.52,1.62-1.21,2.17-2.05h6.63c-1.08,2.26-2.76,4.11-5.03,5.57-2.27,1.45-4.84,2.18-7.71,2.18-3.1,0-5.59-.85-7.47-2.54-1.87-1.69-2.81-3.99-2.81-6.9,0-.85.09-1.74.26-2.67.44-2.43,1.34-4.56,2.7-6.39s3.05-3.25,5.07-4.23c2.02-.99,4.23-1.48,6.63-1.48,3.1,0,5.56.83,7.38,2.48ZM54.34,16.68c0-1.35-.45-2.41-1.36-3.17-.91-.76-2.09-1.14-3.56-1.14-1.55,0-2.94.47-4.17,1.42-1.23.95-2.09,2.24-2.59,3.87h11.6c.06-.45.09-.78.09-.97Z"/>
      <path class="cls-1" d="M84.96,9.97c1.82,1.65,2.72,3.87,2.72,6.67,0,.9-.07,1.71-.22,2.41-.18.85-.37,1.58-.57,2.2h-17.79c-.03.2-.04.48-.04.85,0,1.47.45,2.62,1.34,3.45.89.83,2.07,1.25,3.54,1.25,1.23,0,2.29-.26,3.18-.78.89-.52,1.62-1.21,2.17-2.05h6.63c-1.08,2.26-2.76,4.11-5.03,5.57-2.27,1.45-4.84,2.18-7.71,2.18-3.1,0-5.59-.85-7.47-2.54-1.87-1.69-2.81-3.99-2.81-6.9,0-.85.09-1.74.26-2.67.44-2.43,1.34-4.56,2.7-6.39s3.05-3.25,5.07-4.23c2.02-.99,4.23-1.48,6.63-1.48,3.1,0,5.56.83,7.38,2.48ZM81.45,16.68c0-1.35-.45-2.41-1.36-3.17-.91-.76-2.09-1.14-3.56-1.14-1.55,0-2.94.47-4.17,1.42-1.23.95-2.09,2.24-2.59,3.87h11.6c.06-.45.09-.78.09-.97Z"/>
      <path class="cls-1" d="M103.45,19.6l8.61,11.73h-7.95l-6.41-9.95-1.85,9.95h-6.19L95.41,0h6.19l-3.25,17.78,9.93-9.91h8.04l-12.87,11.73Z"/>
      <path class="cls-1" d="M137.72,9.97c1.82,1.65,2.72,3.87,2.72,6.67,0,.9-.07,1.71-.22,2.41-.18.85-.37,1.58-.57,2.2h-17.79c-.03.2-.04.48-.04.85,0,1.47.45,2.62,1.34,3.45.89.83,2.07,1.25,3.54,1.25,1.23,0,2.29-.26,3.18-.78.89-.52,1.62-1.21,2.17-2.05h6.63c-1.08,2.26-2.76,4.11-5.03,5.57-2.27,1.45-4.84,2.18-7.71,2.18-3.1,0-5.59-.85-7.47-2.54-1.87-1.69-2.81-3.99-2.81-6.9,0-.85.09-1.74.26-2.67.44-2.43,1.34-4.56,2.7-6.39,1.36-1.83,3.05-3.25,5.07-4.23,2.02-.99,4.23-1.48,6.63-1.48,3.1,0,5.56.83,7.38,2.48ZM134.2,16.68c0-1.35-.45-2.41-1.36-3.17-.91-.76-2.09-1.14-3.56-1.14-1.55,0-2.94.47-4.17,1.42-1.23.95-2.09,2.24-2.59,3.87h11.6c.06-.45.09-.78.09-.97Z"/>
      <path class="cls-1" d="M166.21,9.5c1.45,1.31,2.17,3.18,2.17,5.61,0,.9-.07,1.72-.22,2.46l-2.55,13.76h-6.11l2.37-12.95c.09-.51.13-1,.13-1.48,0-1.41-.39-2.48-1.16-3.22-.78-.73-1.88-1.1-3.32-1.1-1.64,0-3.04.47-4.2,1.42-1.16.95-1.93,2.31-2.31,4.08l-2.42,13.25h-6.19l4.31-23.45h6.19l-.53,2.88c1.21-1.2,2.7-2.1,4.48-2.7.91-.31,1.87-.48,2.83-.51,2.78-.1,4.95.55,6.51,1.96Z"/>
      <path class="cls-1" d="M174.69,13.21c1.3-1.83,2.9-3.25,4.79-4.23,1.89-.99,3.87-1.48,5.95-1.48,1.58,0,3.03.33,4.35,1,1.32.66,2.3,1.55,2.94,2.65l2.06-11.13h6.19l-5.75,31.33h-6.19l.66-3.47c-.97,1.16-2.2,2.09-3.71,2.79-1.51.71-3.17,1.06-4.99,1.06s-3.38-.39-4.77-1.16c-1.39-.78-2.48-1.88-3.25-3.3-.78-1.42-1.16-3.08-1.16-4.97,0-.87.09-1.79.26-2.75.44-2.37,1.31-4.47,2.61-6.31ZM191.36,17.99c0-1.67-.51-2.96-1.52-3.89s-2.28-1.4-3.8-1.4c-1.14,0-2.25.27-3.32.8-1.07.54-2,1.32-2.79,2.35-.79,1.03-1.32,2.25-1.58,3.66-.09.54-.13,1.04-.13,1.52,0,1.69.5,3.03,1.49,4,1,.97,2.25,1.46,3.78,1.46,1.14,0,2.25-.28,3.34-.83,1.08-.55,2.01-1.35,2.79-2.39.78-1.04,1.3-2.27,1.56-3.68.12-.73.18-1.27.18-1.61Z"/>
      <path class="cls-1" d="M225.31,0l-5.75,31.33h-9.75l5.75-31.33h9.75Z"/>
      <path class="cls-1" d="M227.38,12.85c1.23-1.85,2.71-3.26,4.44-4.23s3.56-1.46,5.49-1.46c1.61,0,2.94.32,4,.95,1.05.64,1.79,1.5,2.2,2.6l.61-3.26h9.71l-4.39,23.88h-9.71l.62-3.26c-.82,1.1-1.88,1.97-3.16,2.6-1.29.64-2.74.95-4.35.95-2.49,0-4.5-.8-6.02-2.41s-2.28-3.84-2.28-6.69c0-1.07.1-2.12.31-3.13.47-2.51,1.32-4.69,2.55-6.54ZM242.01,18.37c0-.96-.26-1.7-.79-2.22-.53-.52-1.25-.78-2.15-.78-1.05,0-1.98.35-2.79,1.06-.81.71-1.33,1.69-1.56,2.96-.06.25-.09.59-.09,1.02,0,.96.26,1.7.79,2.22.53.52,1.24.78,2.15.78,1.05,0,1.98-.35,2.79-1.06.81-.71,1.33-1.69,1.56-2.96.06-.25.09-.59.09-1.02Z"/>
      <path class="cls-1" d="M270.49,8.11c1.27-.63,2.72-.95,4.33-.95,2.49,0,4.5.8,6.02,2.41,1.52,1.61,2.28,3.84,2.28,6.69,0,1.07-.1,2.12-.31,3.13-.47,2.51-1.32,4.69-2.55,6.54-1.23,1.85-2.71,3.26-4.44,4.23-1.73.97-3.56,1.46-5.49,1.46-1.61,0-2.94-.32-3.98-.95-1.04-.63-1.76-1.5-2.17-2.6l-.61,3.26h-9.75l5.75-31.33h9.75l-1.98,10.71c.82-1.1,1.87-1.97,3.14-2.6ZM273.02,18.37c0-.96-.26-1.7-.79-2.22-.53-.52-1.25-.78-2.15-.78-1.05,0-1.98.35-2.79,1.06-.81.71-1.33,1.69-1.56,2.96-.06.25-.09.59-.09,1.02,0,.96.26,1.7.79,2.22.53.52,1.25.78,2.15.78,1.05,0,1.98-.35,2.79-1.06.81-.71,1.33-1.69,1.56-2.96.06-.25.09-.59.09-1.02Z"/>
      <path class="cls-1" d="M289.25,30.69c-2.08-.77-3.6-1.91-4.56-3.43-.56-.89-.81-1.93-.82-2.97,0-.55.03-.96.09-1.22h9.36c-.03.71.18,1.23.64,1.57s1.08.51,1.87.51c.5,0,.93-.11,1.3-.34.37-.23.55-.49.55-.8,0-.45-.29-.81-.88-1.08-.59-.27-1.55-.57-2.9-.91-1.7-.45-3.11-.92-4.24-1.4-1.13-.48-2.11-1.19-2.94-2.14-.83-.95-1.25-2.18-1.25-3.7,0-1.41.45-2.7,1.34-3.87.89-1.17,2.15-2.09,3.78-2.75,1.63-.66,3.51-.99,5.64-.99,2.34,0,4.36.38,6.04,1.14,1.68.76,2.95,1.79,3.8,3.09.85,1.3,1.24,2.74,1.19,4.32h-8.65c0-.65-.21-1.15-.61-1.5-.41-.35-1.01-.53-1.8-.53-.5,0-.92.1-1.25.3-.34.2-.51.47-.51.8,0,.42.29.77.88,1.04.59.27,1.58.61,2.99,1.04,1.73.48,3.15.95,4.28,1.42,1.13.47,2.12,1.16,2.96,2.07.85.92,1.27,2.08,1.27,3.49,0,2.46-1.09,4.37-3.27,5.74-2.18,1.37-5.02,2.05-8.5,2.05-2.17,0-4.09-.31-5.78-.93Z"/>
      <path class="cls-2" d="M312.01,30.43c-.77-.75-1.17-1.81-1.12-2.86s.46-1.92,1.25-2.63c.83-.76,1.91-1.14,3.23-1.14s2.35.38,3.19,1.14c.79.72,1.21,1.61,1.25,2.66s-.37,2.11-1.14,2.85c-.85.81-1.95,1.22-3.29,1.22s-2.5-.41-3.35-1.24Z"/>
    </g>
  </g>
</svg>