<?xml version="1.0" encoding="UTF-8"?>
<svg id="Layer_2" data-name="Layer 2" xmlns="http://www.w3.org/2000/svg" viewBox="0 0 44.58 55.94">
  <defs>
    <style>
      .cls-1 {
        fill: #5bbf92;
      }

      .cls-2 {
        fill: #e6e6e5;
      }
    </style>
  </defs>
  <g id="Layer_1-2" data-name="Layer 1">
    <g>
      <path class="cls-2" d="M12.79,0H3.87C1.46,0-.36,2.17.06,4.54l8.53,48.2c.33,1.85,1.93,3.19,3.81,3.19h8.93c2.41,0,4.23-2.17,3.81-4.54L16.6,3.19c-.33-1.85-1.93-3.19-3.81-3.19Z"/>
      <path class="cls-2" d="M38.4,36.23h-8.85c-1.81,0-3.35-1.28-3.68-3.05l-5.35-28.78c-.43-2.29,1.34-4.41,3.68-4.41h8.85c1.81,0,3.35,1.28,3.68,3.05l5.35,28.78c.43,2.29-1.34,4.41-3.68,4.41Z"/>
      <path class="cls-1" d="M44.58,47.72c0,3.82-2.59,7.02-6.12,7.95-.67.18-1.38.27-2.1.27s-1.43-.09-2.09-.27c-3.53-.92-6.12-4.13-6.12-7.95,0-4.54,3.67-8.21,8.21-8.21s8.22,3.67,8.22,8.21Z"/>
    </g>
  </g>
</svg>