<svg xmlns="http://www.w3.org/2000/svg" version="1.1" xmlns:xlink="http://www.w3.org/1999/xlink" xmlns:svgjs="http://svgjs.dev/svgjs" width="1000" height="1000"><g clip-path="url(#SvgjsClipPath1127)"><rect width="1000" height="1000" fill="#ffffff"></rect><g transform="matrix(6.777363605557437,0,0,6.777363605557437,0,0)"><svg xmlns="http://www.w3.org/2000/svg" version="1.1" xmlns:xlink="http://www.w3.org/1999/xlink" xmlns:svgjs="http://svgjs.dev/svgjs" width="147.55" height="147.55"><svg id="Layer_2" xmlns="http://www.w3.org/2000/svg" viewBox="0 0 147.55 147.55">
  <defs>
    <style>
      .cls-1 {
        fill: #fff;
      }

      .cls-2 {
        fill: #77f2a1;
      }

      .cls-3 {
        fill: #212120;
      }
    </style>
  <clipPath id="SvgjsClipPath1127"><rect width="1000" height="1000" x="0" y="0" rx="500" ry="500"></rect></clipPath></defs>
  <g id="Layer_1-2" data-name="Layer_1">
    <g>
      <circle class="cls-1" cx="73.78" cy="73.78" r="73.78"></circle>
      <path class="cls-3" d="M56.93,24.14h-15.84c-4.27,0-7.5,3.86-6.76,8.06l15.14,85.55c.58,3.28,3.43,5.67,6.76,5.67h15.84c4.27,0,7.5-3.86,6.76-8.06l-15.14-85.55c-.58-3.28-3.43-5.67-6.76-5.67Z"></path>
      <path class="cls-3" d="M102.38,88.44h-15.71c-3.21,0-5.95-2.28-6.54-5.41l-9.5-51.07c-.76-4.07,2.38-7.82,6.54-7.82h15.71c3.21,0,5.95,2.28,6.54,5.41l9.5,51.07c.76,4.07-2.38,7.82-6.54,7.82Z"></path>
      <path class="cls-2" d="M113.33,108.83c0,6.78-4.6,12.47-10.86,14.11-1.19.32-2.44.48-3.73.48s-2.53-.17-3.71-.48c-6.26-1.64-10.86-7.32-10.86-14.11,0-8.05,6.52-14.57,14.57-14.57s14.59,6.52,14.59,14.57Z"></path>
    </g>
  </g>
</svg></svg></g></g></svg>